# xmcd
#
# Track frame offsets:
#	182
#	13367
#	28592
#	40740
#	54155
#	69155
#	84595
#	99465
#	113302
#	126272
#	138772
#	152737
#	167172
#	180220
#	193257
#	207700
#
# Disc length: 2939 seconds
#
# Revision: 2
# Processed by: cddbd v1.4PL0 Copyright (c) Steve Scherf et al.
# Submitted via: CDmax 2.0
#
DISCID=cd0b7910
DTITLE=Muddy Waters
DYEAR=1900
DGENRE=Blues
TTITLE0=Louisiana Blues
TTITLE1=Honey Bee
TTITLE2=Long Distance Call
TTITLE3=She Moves Me
TTITLE4=Still A Fool
TTITLE5=They Call Me Muddy Waters
TTITLE6=Baby Please Don't Go
TTITLE7=I Want You To Love Me
TTITLE8=I Just Want To Make Love To You
TTITLE9=I'm Your Hoochie Coochie Man
TTITLE10=I'm Ready
TTITLE11=Smokestack Lightnin'
TTITLE12=40 Days And 40 Nights
TTITLE13=Got My Mojo Working
TTITLE14=Rock Me
TTITLE15=I Love The Life I Live, I Live The Life I Love
EXTD=
EXTT0=(Morganfield)
EXTT1=(Morganfield)
EXTT2=(Morganfield)
EXTT3=(Morganfield)
EXTT4=(Morganfield)
EXTT5=(Morganfield)
EXTT6=(Morganfield)
EXTT7=(Morganfield)
EXTT8=(Dixon)
EXTT9=(Dixon)
EXTT10=(Dixon)
EXTT11=(Burnett)
EXTT12=(Roth)
EXTT13=(Morganfield)
EXTT14=(Morganfield)
EXTT15=(Dixon)
PLAYORDER=
